<svg viewBox="0 0 130 20" fill="none" xmlns="http://www.w3.org/2000/svg">
	<path d="M61.8613 19.7282L68.503 19.7282C73.9925 19.7282 77.9059 15.7877 77.9059 10.0808C77.9059 4.37382 73.9925 0.433304 68.503 0.433304L61.8613 0.433304L61.8613 19.7282ZM64.9322 16.8204L64.9322 3.34113L68.3943 3.34113C72.4978 3.34113 74.7263 6.05873 74.7263 10.0808C74.7263 14.1028 72.4978 16.8204 68.3943 16.8204L64.9322 16.8204Z" fill="white" />
	<path d="M86.219 20C88.8007 20 90.5943 18.5869 91.1106 17.4726L91.1921 17.4726V19.7282L94.1815 19.7282L94.1815 5.59673L91.1921 5.59673V7.85234L91.1106 7.85234C90.5943 6.73813 88.8007 5.32498 86.219 5.32498C82.8763 5.32498 79.3706 7.798 79.3706 12.6625C79.3706 17.527 82.8763 20 86.219 20ZM86.7896 17.2824C84.534 17.2824 82.3328 15.7062 82.3328 12.6625C82.3328 9.61879 84.534 8.04258 86.7896 8.04258C89.0724 8.04258 91.2737 9.61879 91.2737 12.6625C91.2737 15.7062 89.0724 17.2824 86.7896 17.2824Z" fill="white" />
	<path d="M103.864 8.0154V5.59673L101.01 5.59673L101.01 1.98233L97.9936 1.98233L97.9936 5.59673L96.037 5.59673V8.0154L97.9936 8.0154L97.9936 16.3041C97.9936 18.8314 99.5155 19.8913 101.662 19.8913C102.423 19.8913 103.347 19.7554 103.864 19.3206V16.9563C103.347 17.1465 102.885 17.2009 102.559 17.2009C101.445 17.2009 101.01 16.5758 101.01 15.7606L101.01 8.0154L103.864 8.0154Z" fill="white" />
	<path d="M112.167 5.32498C108.58 5.32498 105.074 7.9067 105.074 12.6625C105.074 17.3639 108.553 20 112.384 20C114.776 20 116.814 19.0217 118.037 17.4998L116.624 16.0323C115.591 17.0106 114.232 17.4998 112.71 17.4998C110.292 17.4998 108.362 16.2497 107.9 13.8039L118.988 13.8039C119.667 7.87952 115.754 5.32498 112.167 5.32498ZM112.194 7.87952C114.205 7.87952 116.162 9.12962 116.325 11.5755L107.873 11.5755C108.308 9.07526 110.21 7.87952 112.194 7.87952Z" fill="white" />
	<path d="M6.92987 19.8385C10.191 19.8385 13.7782 17.909 13.7782 13.8869C13.7782 11.2237 12.2292 9.64747 8.75066 8.2615L7.44622 7.74515C5.43519 6.92987 4.94603 6.27765 4.94603 5.43519C4.94603 4.34816 5.84284 3.80464 7.0114 3.80464C8.20714 3.80464 9.18548 4.42968 10.0279 5.89719L13.2075 4.10357C12.2835 2.06537 10.2453 0 6.84834 0C3.5057 0 0.706576 2.0382 0.706576 5.38084C0.706576 8.50608 3.07088 9.91923 5.6526 10.9519L6.84834 11.4139C8.69631 12.1477 9.32136 12.6912 9.32136 13.8326C9.32136 15.3272 8.15279 15.9523 6.87552 15.9523C5.05473 15.9523 4.02204 14.7022 3.47852 13.3978L0 15.0011C0.733751 17.8274 3.53288 19.8385 6.92987 19.8385Z" fill="white" />
	<path d="M29.5819 19.8385C32.0821 19.8385 33.5496 18.4797 33.767 17.9633H33.8485L33.8485 19.5667L38.0608 19.5667L38.0608 5.43519L33.8485 5.43519V7.03858L33.767 7.03858C33.5496 6.52223 32.0821 5.16343 29.5819 5.16343C26.3751 5.16343 22.8422 7.5821 22.8422 12.5009C22.8422 17.4198 26.3751 19.8385 29.5819 19.8385ZM30.4515 16.0882C28.6579 16.0882 27.0002 14.7837 27.0002 12.5009C27.0002 10.2182 28.6579 8.91372 30.4515 8.91372C32.2995 8.91372 33.9572 10.191 33.9572 12.5009C33.9572 14.8109 32.2995 16.0882 30.4515 16.0882Z" fill="white" />
	<path d="M49.2004 5.16343C46.6458 5.16343 45.287 6.98422 44.825 9.26701L44.825 5.43519L40.6128 5.43519L40.6128 19.5667L44.825 19.5667L44.825 13.751C44.825 11.0878 46.4284 9.21265 49.2275 9.21265C49.5808 9.21265 49.8798 9.23983 50.2059 9.29418L50.2059 5.29931C49.8526 5.19061 49.5265 5.16343 49.2004 5.16343Z" fill="white" />
	<path d="M57.7817 16.0066C56.5044 16.0066 56.0968 15.2457 56.0968 14.5391L56.0968 9.18831L59.7466 5.50113L55.9774 5.50113L55.9774 1.37528L51.8845 5.47715L51.8845 8.77784L51.8845 15.2185C51.8845 18.4525 53.7868 19.7298 56.3957 19.7298C57.374 19.7298 58.5698 19.5395 59.1133 18.996L59.1133 15.7892C58.597 15.9523 58.1078 16.0066 57.7817 16.0066Z" fill="white" />
	<path d="M21.3037 16.0066C20.0264 16.0066 19.6188 15.2457 19.6188 14.5391L19.6188 9.18831L23.2686 5.50113L19.4994 5.50113L19.4994 1.37528L15.4065 5.47715L15.4065 8.77784L15.4065 15.2185C15.4065 18.4525 17.3088 19.7298 19.9177 19.7298C20.8961 19.7298 22.0918 19.5395 22.6353 18.996L22.6353 15.7892C22.119 15.9523 21.6298 16.0066 21.3037 16.0066Z" fill="white" />
	<g clipPath="url(#clip0_2291_2644)">
		<path d="M124.463 0.274902L124.463 5.23692L119.51 5.23692L124.463 0.274902Z" fill="#FFFFFF" />
		<path d="M124.463 10.199L124.463 5.23697L129.417 5.23697L124.463 10.199Z" fill="#FFFFFF" />
	</g>
	<defs>
		<clipPath id="clip0_2291_2644">
			<rect width="9.90712" height="9.92404" fill="white" transform="translate(119.51 0.274902)" />
		</clipPath>
	</defs>
</svg>
