<?xml version="1.0" encoding="UTF-8"?>
<svg id="Layer_1" data-name="Layer 1" xmlns="http://www.w3.org/2000/svg" xmlns:xlink="http://www.w3.org/1999/xlink" viewBox="0 0 649.77 133.52">
  <defs>
    <style>
      .cls-1 {
        fill: url(#linear-gradient-2);
      }

      .cls-2 {
        fill: url(#linear-gradient);
      }

      .cls-3 {
        fill: #005849;
      }
    </style>
    <linearGradient id="linear-gradient" x1="29.66" y1="67.98" x2="-10.38" y2="38.16" gradientTransform="translate(0 154) scale(1 -1)" gradientUnits="userSpaceOnUse">
      <stop offset="0" stop-color="#005849"/>
      <stop offset="1" stop-color="#00d7b2"/>
    </linearGradient>
    <linearGradient id="linear-gradient-2" x1="103.99" y1="159.76" x2="-.24" y2="74.91" gradientTransform="translate(0 154) scale(1 -1)" gradientUnits="userSpaceOnUse">
      <stop offset=".39" stop-color="#005849"/>
      <stop offset=".48" stop-color="#005d4d"/>
      <stop offset=".6" stop-color="#006c59"/>
      <stop offset=".72" stop-color="#00856e"/>
      <stop offset=".86" stop-color="#00a88b"/>
      <stop offset="1" stop-color="#00d5b0"/>
      <stop offset="1" stop-color="#00d7b2"/>
    </linearGradient>
  </defs>
  <g>
    <path class="cls-3" d="M100.93,99.25c0-22.21,16.5-34.26,33.37-34.26s35.78,11.8,32.1,40.86h-49.36c2.41,9.01,10.28,13.7,20.18,13.7,6.47,0,12.18-1.78,17-5.96l7.74,8.25c-5.46,6.85-14.97,11.67-26.65,11.67-18.15,0-34.39-12.31-34.39-34.26h0ZM151.31,93.41c-1.02-9.39-8.88-14.08-16.88-14.08s-15.48,4.57-17.64,14.08h34.52Z"/>
    <path class="cls-3" d="M173.38,99.25c0-22.33,17.38-34.26,34.77-34.26,11.67,0,22.08,5.46,28.42,16.24l-12.44,7.99c-3.43-5.2-9.01-8.88-15.86-8.88-9.52,0-18.15,7.11-18.15,18.91s8.63,18.91,18.15,18.91c6.85,0,12.44-3.68,15.86-8.88l12.44,7.99c-6.34,10.66-16.75,16.24-28.42,16.24-17.38,0-34.77-11.93-34.77-34.26h0Z"/>
    <path class="cls-3" d="M246.34,66.25h17v17.13c2.28-10.15,8.76-18.4,20.68-18.4,1.52,0,2.92.13,4.44.51v16.24c-1.52-.25-2.79-.38-4.31-.38-12.82,0-20.81,8.88-20.81,22.08v28.8h-17s0-65.98,0-65.98Z"/>
    <path class="cls-3" d="M360.29,132.24h-17v-9.01c-3.68,5.84-10.28,10.28-20.18,10.28-13.58,0-25-8.38-25-28.42v-38.83h17v36.04c0,9.64,5.2,15.99,14.08,15.99s14.08-6.34,14.08-15.99v-36.04h17v65.98h.02Z"/>
    <path class="cls-3" d="M373.23,42.14h17v14.97h-17v-14.97ZM373.23,66.25h17v65.98h-17v-65.98Z"/>
    <path class="cls-3" d="M409.39,113.97v-34.13h-9.39v-13.58h9.39v-16.88h17.13v16.88h13.58v13.58h-13.58v31.34c0,3.43,1.9,6.73,7.49,6.73,1.52,0,3.81-.25,6.22-1.02v13.07c-2.54,2.28-7.36,3.04-11.55,3.04-11.17,0-19.29-5.46-19.29-19.03h0Z"/>
    <path class="cls-3" d="M481.84,99.37h-21.95v32.87h-7.87V42.14h27.92c18.91,0,30.07,12.31,30.07,28.68,0,13.58-7.36,23.98-20.3,27.41l23.09,34.01h-8.76l-22.21-32.87h0ZM478.93,92.14c14.21,0,22.97-7.61,22.97-21.32s-8.76-21.19-22.97-21.19h-19.03v42.51h19.03Z"/>
    <path class="cls-3" d="M526.25,42.14h7.74v7.49h-7.74v-7.49ZM526.25,66.25h7.74v65.98h-7.74v-65.98Z"/>
    <path class="cls-3" d="M555.31,121.07v-48.35h-8.5v-6.47h8.5v-16.88h7.74v16.88h12.82v6.47h-12.82v46.7c0,4.31,2.16,6.6,6.6,6.6,1.52,0,3.55-.25,5.96-1.27v6.34c-2.28,1.52-5.08,1.9-7.61,1.9-7.61,0-12.69-3.68-12.69-11.93h0Z"/>
    <path class="cls-3" d="M585.51,99.12c0-22.08,16.12-34.13,32.61-34.13s33.63,12.18,31.47,37.05h-56.72c1.27,15.99,13.2,24.62,27.03,24.62,8.38,0,16.12-3.17,20.94-8.88l4.06,4.19c-5.96,7.36-15.61,11.55-25.89,11.55-17.51,0-33.5-12.18-33.5-34.39h0ZM642.61,95.82c-.38-15.48-11.93-23.98-24.49-23.98s-23.86,8.25-25.25,23.98c0,0,49.74,0,49.74,0Z"/>
  </g>
  <g>
    <path class="cls-3" d="M.02,29.9c-.02.31-.02.63-.02.95v-.95h.02Z"/>
    <path class="cls-3" d="M30.1,30.85v27.27c-1.56-.05-16.38,0-29.98,15.73v6.22H0v-19.1C0,44.34,13.47,30.86,30.1,30.86h0Z"/>
    <g>
      <g>
        <path class="cls-3" d="M96.02,133.51h-19.35c-6.54,0-12.47-3.86-15.1-9.85l-16.56-37.43h7.65c7.32,0,14.19-1.81,20.23-5.02l23.13,52.3Z"/>
        <g>
          <path class="cls-3" d="M30.23,86.17v17.22c0,16.61-13.51,30.11-30.11,30.11v-21.75s6.26-19.26,30.11-25.59h0Z"/>
          <path class="cls-2" d="M30.23,86.17v.06C6.31,92.55.12,111.82.12,111.82v-.06s6.26-19.26,30.11-25.59Z"/>
        </g>
      </g>
      <path class="cls-1" d="M96.02,42.93h-.06c0,11.96-4.83,22.8-12.69,30.61-3.05,3.05-6.55,5.64-10.38,7.67-6.04,3.21-12.92,5.02-20.23,5.02h-22.42v-.06C6.38,92.49.12,111.76.12,111.76v-37.92c13.6-15.72,28.42-15.78,29.98-15.73h23.54c7.42,0,13.44-6.03,13.44-13.45v-.8c0-7.19-5.81-13.01-13-13.01h-23.98c-16.63,0-30.1,13.48-30.1,30.11v-30.11c0-.32,0-.64.02-.95.24-8.14,3.64-15.51,9.02-20.87C14.62,3.45,22.34,0,30.85,0h22.24c23.66,0,42.93,19.21,42.93,42.93Z"/>
    </g>
    <path class="cls-3" d="M30.1,30.85v27.27c-1.56-.05-16.38,0-29.98,15.73v5.08H0v-17.96C0,44.34,13.47,30.86,30.1,30.86h0Z"/>
  </g>
</svg>