<svg xmlns="http://www.w3.org/2000/svg" width="34" height="34" viewBox="0 0 34 34">
  <g id="seeker-icon" transform="translate(-1292 -14)">
    <circle id="Elipse_419" data-name="Elipse 419" cx="17" cy="17" r="17" transform="translate(1292 14)" fill="#929aab"/>
    <path id="seekers" d="M10.725,10.207A3.885,3.885,0,0,1,7.87,9.035,3.885,3.885,0,0,1,6.7,6.18,3.84,3.84,0,0,1,7.87,3.325a3.922,3.922,0,0,1,2.855-1.15,3.913,3.913,0,0,1,2.866,1.15A3.859,3.859,0,0,1,14.752,6.18a3.9,3.9,0,0,1-1.161,2.855A3.877,3.877,0,0,1,10.725,10.207ZM5.953,18.175A2.547,2.547,0,0,1,3.375,15.6V15.15A3.073,3.073,0,0,1,3.844,13.5,2.993,2.993,0,0,1,5.1,12.359a14.2,14.2,0,0,1,2.781-1.012A11.752,11.752,0,0,1,10.725,11a12.254,12.254,0,0,1,2.9.341,12.852,12.852,0,0,1,2.727,1,2.918,2.918,0,0,1,1.267,1.129,3.148,3.148,0,0,1,.458,1.683V15.6A2.547,2.547,0,0,1,15.5,18.175Z" transform="translate(1298.625 20.825)" fill="#fff"/>
  </g>
</svg>
