<svg xmlns="http://www.w3.org/2000/svg" width="38" height="38" viewBox="0 0 38 38">
  <g id="settings" transform="translate(-175 -95)">
    <rect id="Rectángulo_2067" data-name="Rectángulo 2067" width="38" height="38" rx="2" transform="translate(175 95)" fill="currentColor"/>
    <path id="settings-2" data-name="settings" d="M12.113,19.375H8.721a1.227,1.227,0,0,1-.837-.329,1.262,1.262,0,0,1-.435-.795l-.233-1.76q.127.042-.01-.021l-.5-.233-1.611.7a1.226,1.226,0,0,1-.922.021,1.266,1.266,0,0,1-.689-.594L1.745,13.354a1.287,1.287,0,0,1-.137-.9,1.178,1.178,0,0,1,.477-.753l1.42-1.081V10.11L2.085,9.05a1.348,1.348,0,0,1-.477-.784A1.2,1.2,0,0,1,1.745,7.4L3.484,4.386a1.425,1.425,0,0,1,.71-.551,1.173,1.173,0,0,1,.9.021l1.7.7q.085-.064.17-.116a1.469,1.469,0,0,1,.254-.117l.233-1.845a1.216,1.216,0,0,1,.424-.8,1.267,1.267,0,0,1,.848-.307h3.392a1.309,1.309,0,0,1,.859.307,1.2,1.2,0,0,1,.434.8L13.639,4.3a1.172,1.172,0,0,1,.233.106,1.929,1.929,0,0,1,.212.148l1.675-.7a1.208,1.208,0,0,1,.9-.032,1.242,1.242,0,0,1,.689.562L19.109,7.4a1.209,1.209,0,0,1-.36,1.654l-1.484,1.1v.233a.693.693,0,0,1-.011.137.518.518,0,0,0-.01.1L18.728,11.7a1.181,1.181,0,0,1,.477.753,1.291,1.291,0,0,1-.138.9l-1.76,3.032a1.178,1.178,0,0,1-.678.572,1.274,1.274,0,0,1-.912-.042l-1.675-.7a1.081,1.081,0,0,1-.137.116q-.075.053-.265.159l-.233,1.76a1.322,1.322,0,0,1-1.293,1.124Zm-1.76-6.127a2.861,2.861,0,0,0,2.862-2.862,2.861,2.861,0,0,0-2.862-2.862,2.861,2.861,0,0,0-2.862,2.862,2.861,2.861,0,0,0,2.862,2.862Z" transform="translate(183.42 103.625)" fill="#fff"/>
  </g>
</svg>
